<?xml version="1.0" encoding="UTF-8"?>
<svg xmlns="http://www.w3.org/2000/svg" width="307" height="21" viewBox="0 0 307 21" fill="none">
  <path fill-rule="evenodd" clip-rule="evenodd" d="M130.386 2.65449C115.963 3.28757 101.71 4.06599 87.8101 4.91701C68.1336 6.12089 48.4647 7.36629 28.9145 9.33817C22.7605 9.96086 16.511 10.3552 10.3955 11.1336C6.55655 11.6214 1.46621 12.3166 0.798162 12.4619C0.448748 12.5449 0.296311 12.6696 0.247054 12.7111C-0.0992817 13.0017 -0.0360882 13.2818 0.159399 13.4997C0.237902 13.5931 0.436412 13.8216 0.987471 13.8527C37.8407 15.9802 75.5251 11.8289 112.423 11.393C176.41 10.6458 242.337 13.614 305.817 20.09C306.371 20.1419 306.91 19.8824 306.987 19.4984C307.079 19.1248 306.679 18.7615 306.125 18.7096C242.538 12.2232 176.503 9.24465 112.392 10.0023C78.0049 10.407 42.9387 14.0499 8.50372 12.8045C9.29491 12.7007 10.0707 12.5969 10.7788 12.5035C16.8697 11.7251 23.093 11.3411 29.2223 10.7184C48.731 8.74656 68.3598 7.50117 88.0102 6.30766C112.392 4.81319 137.836 3.52628 163.481 2.92434C172.655 3.01774 181.798 3.11119 190.941 3.22535C210.721 3.47443 230.593 4.20091 250.326 5.17647C256.268 5.47744 262.209 5.78876 268.151 6.0586C270.121 6.152 275.201 6.42179 275.909 6.40103C276.786 6.38028 276.956 5.88216 276.971 5.79914C277.017 5.61233 276.986 5.35286 276.555 5.13491C276.509 5.10378 276.232 4.99993 275.616 4.93766C239.736 1.26375 201.424 0.651531 163.511 1.53368C123.521 1.14969 83.3769 0.98356 43.4883 0.807129C42.9172 0.807129 42.4508 1.11852 42.4462 1.50252C42.4431 1.88651 42.9033 2.19792 43.4744 2.2083C72.3573 2.33284 101.386 2.4573 130.386 2.65449Z" fill="white"></path>
</svg>
