<svg xmlns="http://www.w3.org/2000/svg" width="132" height="56" viewBox="0 0 132 56" fill="none"><path d="M131.478 32.8168V18.8364C131.478 17.8965 131.398 16.9958 131.201 16.0951C130.568 12.9231 128.157 10.4168 125.074 9.63357C123.058 9.12447 120.923 8.81119 118.749 8.81119C114.401 8.81119 110.211 9.32028 106.179 10.2993L107.76 14.7245C110.527 13.9804 113.452 13.5888 116.456 13.5888C117.563 13.5888 118.67 13.7063 119.698 13.9021C120.805 14.1371 121.595 15.0769 121.595 16.2126V18.4056C119.579 18.4056 117.603 18.4839 115.626 18.6014C113.571 18.7189 111.555 19.1105 109.657 19.6587C108.709 19.9329 107.76 20.2853 106.89 20.7161C104.677 21.8126 103.135 24.0448 103.135 26.6685C103.135 29.4098 104.795 31.7594 107.207 32.7776C109.144 33.6 111.239 34.1483 113.452 34.3832C115.033 34.5399 116.694 34.6182 118.314 34.6182C122.9 34.6182 127.327 33.9916 131.478 32.8168ZM121.635 22.0084V30.3496C120.528 30.5063 119.421 30.5455 118.314 30.5455C117.01 30.5455 115.745 30.3105 114.599 29.8797C113.255 29.3706 112.306 28.1175 112.306 26.5902C112.306 24.9063 113.334 23.4965 114.796 22.9091C115.626 22.5566 116.496 22.3217 117.445 22.2434C118.789 22.0867 120.212 22.0084 121.635 22.0084ZM33.2473 9.16364C33.2473 5.4042 30.757 2.19301 27.3179 1.13566C25.7367 0.665735 24.0765 0.313287 22.4163 0.195804C20.7956 0.0783217 19.1749 0 17.5542 0H0.477539V33.8741H10.9133V20.5986C12.4944 20.5986 14.0361 20.5594 15.5777 20.442L22.8116 33.8741H34.7099L25.9739 18.6797C26.4087 18.5231 26.804 18.3664 27.1993 18.2098C30.757 16.6825 33.2473 13.1972 33.2473 9.16364ZM22.8116 9.28112C22.8116 11.1217 21.8629 12.7273 20.4398 13.6671C19.1749 14.4895 17.7123 15.1161 16.1311 15.3902C14.4314 15.7035 12.6921 15.8601 10.9133 15.8601V4.85594H16.7241C17.6332 4.85594 18.5029 4.97343 19.3725 5.13007C21.349 5.44336 22.8116 7.20559 22.8116 9.28112ZM68.9818 21.7343C68.9818 20.4811 68.8632 19.2671 68.626 18.1315C67.8354 14.0196 64.6731 10.7301 60.6016 9.75105C58.2693 9.16364 55.858 8.85035 53.3282 8.85035C50.8378 8.85035 48.387 9.16364 46.0548 9.75105C41.9833 10.7692 38.8209 14.0587 38.0303 18.1315C37.7932 19.3063 37.6746 20.5203 37.6746 21.7343C37.6746 22.9874 37.7932 24.2014 38.0303 25.3762C38.8209 29.4881 41.9833 32.7776 46.0548 33.7566C48.387 34.3441 50.7983 34.6573 53.3282 34.6573C55.8185 34.6573 58.2693 34.3441 60.6016 33.7566C64.6731 32.7385 67.8354 29.449 68.626 25.3762C68.8236 24.1622 68.9818 22.9483 68.9818 21.7343ZM59.0994 21.7343C59.0994 23.4182 58.9809 25.0629 58.7042 26.6685C58.4274 28.3133 57.2416 29.6448 55.6209 30.0755C54.9093 30.2713 54.1583 30.3888 53.3677 30.3888C52.5771 30.3888 51.8261 30.2713 51.1145 30.0755C49.4938 29.6448 48.2684 28.3133 48.0313 26.6685C47.7941 25.0629 47.636 23.4182 47.636 21.7343C47.636 20.0504 47.7545 18.4056 48.0313 16.8C48.308 15.1552 49.4938 13.8238 51.1145 13.393C51.8261 13.1972 52.6166 13.0797 53.3677 13.0797C54.1583 13.0797 54.9093 13.1972 55.6209 13.393C57.2416 13.8238 58.467 15.1552 58.7042 16.8C58.9413 18.4056 59.0994 20.0504 59.0994 21.7343ZM0.477539 42.7245C9.3321 40.5706 18.5424 39.3958 28.069 39.3958C37.3188 39.3958 46.292 40.4923 54.9093 42.5287C63.3686 44.5259 72.1836 45.6224 81.2754 45.6224C85.0702 45.6224 88.7859 45.1524 92.3831 44.2126C92.5807 44.2126 92.7389 44.3692 92.7389 44.565C92.7389 44.6825 92.6598 44.8 92.5807 44.8783C86.8885 48.8727 80.9591 52.593 74.8716 56C68.1912 55.6084 61.6688 54.6294 55.3837 53.1021C46.7663 51.0657 37.7932 49.9692 28.5433 49.9692C18.8587 49.9692 9.45068 51.1441 0.477539 53.4154V42.7245ZM101.08 42.2937C101.475 41.6671 102.147 41.2755 102.937 41.2755H131.478V53.0629H94.2805L101.08 42.2937ZM74.1601 21.7343C74.1601 20.5986 74.2787 19.4629 74.4763 18.4056C75.2274 14.5678 77.9549 11.4741 81.5916 10.1427C83.9238 9.28112 86.4537 8.85035 89.1022 8.85035C92.4622 8.85035 95.7036 9.35944 98.7473 10.3385L97.1266 14.8811C95.0316 14.372 92.8574 14.0979 90.6043 14.0979C89.4184 14.0979 88.3116 14.3329 87.2838 14.7636C85.9003 15.351 84.9121 16.5259 84.5168 17.9748C84.2005 19.1888 84.0819 20.442 84.0819 21.7734C84.0819 23.0657 84.2005 24.358 84.5168 25.572C84.8725 27.021 85.9003 28.235 87.2838 28.7832C88.3116 29.214 89.4184 29.4489 90.6043 29.4489C92.8574 29.4489 94.992 29.1748 97.1266 28.6657L98.7473 33.2084C95.7036 34.1483 92.4622 34.6965 89.1022 34.6965C86.4537 34.6965 83.9634 34.2266 81.5916 33.4042C77.9549 32.1119 75.2274 28.979 74.4763 25.1413C74.2787 23.9664 74.1601 22.8699 74.1601 21.7343Z" fill="white"></path></svg>