<?xml version="1.0" encoding="UTF-8"?>
<svg xmlns="http://www.w3.org/2000/svg" width="972" height="714" viewBox="0 0 972 714" fill="none">
  <path d="M-406.668 68.5887C-345.015 -1.15605 -287.947 -49.8585 -200.41 -44.8943C-160.598 -42.6279 -120.786 -27.2753 -80.5088 -41.0384C-27.1628 -59.2351 10.0484 -126.162 38.8364 -174.866C54.7059 -201.703 65.8678 -240.47 85.6255 -264.225C100.474 -282.121 118.057 -285.554 138.782 -289.313C195.317 -299.571 246.572 -300.148 301.068 -325.494C415.57 -378.787 579.141 -496.893 577.815 -650.281C655.265 -626.578 730.131 -546.514 702.944 -445.487C689.356 -394.99 593.658 -322.085 646.839 -275.201C665.059 -259.126 691.773 -257.145 710.811 -241.908C732.656 -224.405 739.877 -198.006 748.976 -170.52C782.405 -69.5635 846.473 -19.5787 931.483 28.6765C862.029 47.715 807.182 37.9315 739.022 37.9277C686.938 37.8519 655.293 62.8844 624.091 110.572C587.063 166.946 575.534 252.885 518.037 288.906C471.557 317.99 412.938 320.707 362.311 327.738C311.683 334.77 243.03 337.861 200.27 377.68C160.953 414.199 157.486 477.433 121.761 519.496C47.1204 607.351 -77.0835 607.285 -169.172 658.293C-195.2 600.027 -192.514 554.039 -178.728 489.983C-159.158 399.042 -117.722 281.943 -231.438 267.648C-278.834 261.771 -380.948 286.895 -371.134 201.157C-368.664 179.418 -351.805 161.161 -347.977 140.143C-339.182 90.7222 -369.876 83.8966 -406.668 68.5887Z" stroke="white" stroke-width="0.5" stroke-linecap="round" stroke-linejoin="round"></path>
  <path d="M-168.065 630.061C-82.8706 586.468 23.4353 568.622 85.6961 482.661C116.826 439.655 125.331 394.091 169.86 363.384C216.818 331.008 274.001 321.306 326.454 309.338C373.475 298.592 425.198 290.052 467.83 262.379C525.856 224.719 535.931 151.03 574.835 95.1983C605.849 50.6737 639.278 35.7014 687.791 34.2992C752.217 32.4691 801.082 32.5165 864.713 4.97479" stroke="white" stroke-width="0.5" stroke-linecap="round" stroke-linejoin="round"></path>
  <path d="M-176.438 604.803C-92.5285 565.096 -6.72381 530.672 54.5007 451.063C87.3425 408.383 105.466 368.568 151.692 341.321C200.659 312.443 255.128 298.932 307.811 283.275C352.612 269.951 399.769 256.592 439.309 227.385C489 190.575 499.971 131.286 534.863 80.8892C564.506 38.0654 598.853 23.6961 644.947 19.7064C711.521 14.0051 756.908 4.25168 817.639 -33.9652" stroke="white" stroke-width="0.5" stroke-linecap="round" stroke-linejoin="round"></path>
  <path d="M-180.084 579.696C-88.9645 540.221 -20.2359 491.165 46.2286 411.1C82.0147 367.952 108.943 337.856 157.85 314.285C206.362 290.91 257.148 275.446 307.042 256.995C347.435 242.04 388.535 225.395 423.412 196.885C467.483 160.823 479.003 107.752 513.235 63.0965C543.038 24.2503 576.433 14.4902 619.333 8.03264C686.452 -2.02402 730.547 -23.9507 786.094 -71.0209" stroke="white" stroke-width="0.5" stroke-linecap="round" stroke-linejoin="round"></path>
  <path d="M-179.372 551.025C-124.715 529.658 -74.0676 504.822 -30.4856 460.596C-2.18497 431.886 21.5353 398.056 49.0531 368.426C124.166 287.483 224.126 271.973 317.104 228.317C352.677 211.623 387.206 191.879 417.151 164.151C454.403 129.628 468.29 81.7556 500.946 43.7644C530.546 9.29361 564.659 4.2984 604.018 -3.6793C672.138 -17.4612 715.575 -52.3455 765.873 -106.386" stroke="white" stroke-width="0.5" stroke-linecap="round" stroke-linejoin="round"></path>
  <path d="M-174.42 514.651C-116.113 494.633 -65.3131 471.397 -22.946 420.713C5.01408 387.214 26.8559 349.111 59.1422 319.692C136.048 249.546 244.592 248.438 330.887 194.825C361.063 176.051 388.926 152.848 413.658 125.898C445 91.7514 463.423 43.3494 497.475 13.5331C527.581 -12.834 562.03 -10.8474 597.091 -19.1173C664.605 -35.1274 707.658 -82.7985 752.364 -140.49" stroke="white" stroke-width="0.5" stroke-linecap="round" stroke-linejoin="round"></path>
  <path d="M-165.426 467.009C-106.217 450.023 -54.7262 430.808 -15.5128 375.297C8.15564 341.803 24.5358 304.224 56.2179 278.066C105.085 237.704 165.23 236.504 221.125 219.029C264.192 205.56 306.113 185.767 341.872 154.591C370.432 129.675 392.858 98.1812 415.61 67.2661C438.361 36.3511 461.145 -8.84232 494.378 -26.5049C521.892 -41.0464 553.453 -35.1448 582.286 -39.4296C655.158 -50.2555 698.967 -110.977 741.323 -173.661" stroke="white" stroke-width="0.5" stroke-linecap="round" stroke-linejoin="round"></path>
  <path d="M-152.665 404.266C-96.3192 392.191 -42.8654 379.441 -11.1158 320.682C6.30816 288.43 14.486 254.089 45.1234 232.574C96.6627 196.347 166.362 205.729 223.165 186.53C268.807 171.108 310.603 145.607 342.693 105.197C383.887 53.2347 414.791 -70.5239 484.308 -81.0517C513.469 -85.4602 542.555 -70.1901 571.727 -70.7937C645.81 -72.3441 689.926 -144.169 728.464 -206.484" stroke="white" stroke-width="0.5" stroke-linecap="round" stroke-linejoin="round"></path>
  <path d="M-147.097 328.47C-99.553 316.509 -53.9262 305.143 -20.4824 262.139C-2.53265 239.062 7.5216 215.95 33.407 201.732C83.2551 174.392 145.602 175.413 198.131 154.441C243.667 136.239 286.068 111.744 320.89 73.2053C366.301 22.9961 402.032 -99.7837 466.594 -118.263C494.185 -126.157 523.944 -113.316 551.53 -114.627C622.437 -118.06 665.463 -171.872 707.799 -231.572" stroke="white" stroke-width="0.5" stroke-linecap="round" stroke-linejoin="round"></path>
  <path d="M-166.56 285.001C-124.668 270.827 -83.6287 256.61 -47.6088 227.261C-26.3919 209.961 -9.6395 192.993 15.3102 182.313C109.704 141.896 209.594 135.486 292.047 60.0179C319.723 34.699 341.586 3.16902 362.52 -28.6681C382.145 -58.5406 401.356 -105.061 431.036 -124.507C459.689 -143.288 497.661 -135.765 528.572 -140.484C594.392 -150.509 636.49 -193.065 680.425 -247.672" stroke="white" stroke-width="0.5" stroke-linecap="round" stroke-linejoin="round"></path>
  <path d="M-202.946 264.827C-139.27 234.868 -77.2718 196.049 -11.6369 172.374C78.7821 139.744 177.151 116.104 259.174 58.3428C288.014 38.0505 311.44 12.5314 332.707 -16.933C355.78 -48.9046 371.583 -93.7554 400.402 -119.247C427.229 -142.976 462.56 -146.046 494.28 -154.762C559.827 -172.752 604.19 -206.784 653.112 -260.442" stroke="white" stroke-width="0.5" stroke-linecap="round" stroke-linejoin="round"></path>
  <path d="M-248.917 258.778C-101.412 164.59 70.1413 136.029 225.44 61.0733C254.022 47.2719 277.85 29.2118 298.749 3.14783C325.974 -30.7965 337.457 -75.3439 364.862 -107.941C391.93 -140.119 429.176 -153.245 465.064 -168.081C529.22 -194.618 579.18 -225.213 632.163 -275.892" stroke="white" stroke-width="0.5" stroke-linecap="round" stroke-linejoin="round"></path>
  <path d="M-296.219 257.325C-252.197 220.614 -209.457 191.962 -155.808 179.404C-119.662 170.924 -82.8504 168.844 -47.2056 156.709C-3.01557 141.67 36.7075 112.185 80.1092 94.374C117.49 79.0144 155.71 71.7998 193.871 60.5751C220.252 52.8093 243.172 43.0256 263.425 21.3286C296.944 -14.6256 304.47 -64.6505 332.65 -104.245C359.743 -142.326 398.614 -165.821 437.198 -185.927C503.041 -220.247 564.619 -251.67 624.154 -299.836" stroke="white" stroke-width="0.5" stroke-linecap="round" stroke-linejoin="round"></path>
  <path d="M-336.49 250.865C-290.412 202.303 -245.23 173.659 -182.832 164.729C-146.549 159.534 -109.638 161.993 -73.7558 151.51C-22.9555 136.705 15.432 95.2421 64.0052 74.0946C98.083 59.2775 131.979 55.1803 167.464 49.6472C259.354 35.242 259.805 -44.379 309.11 -117.657C385.102 -230.607 529.868 -269.29 635.244 -337.046" stroke="white" stroke-width="0.5" stroke-linecap="round" stroke-linejoin="round"></path>
  <path d="M-361.849 230.165C-320.775 175.943 -279.874 146.885 -216.436 142.271C-171.982 139.056 -125.953 148.497 -81.7435 136.996C-31.8817 124.161 -4.99959 81.2536 38.2547 54.0972C74.6481 31.1711 109.51 26.8373 149.38 21.1539C178.296 17.0301 201.414 13.73 222.78 -11.599C257.47 -52.6135 266.827 -115.83 298.361 -160.884C387.943 -288.888 544.216 -334.388 672.015 -393.155" stroke="white" stroke-width="0.5" stroke-linecap="round" stroke-linejoin="round"></path>
  <path d="M-368.162 198.891C-321.882 140.078 -278.198 111.386 -208.294 109.504C-165.428 108.363 -121.704 117.899 -78.9698 105.914C-27.1241 91.3513 2.10791 40.2982 46.6241 10.3306C75.1185 -8.86679 104.071 -17.8148 135.855 -25.1904C221.252 -44.9705 234.755 -120.744 292.266 -185.827C399.511 -307.261 557.5 -359.412 691.04 -432.021" stroke="white" stroke-width="0.5" stroke-linecap="round" stroke-linejoin="round"></path>
  <path d="M-362.29 170.335C-313.968 111.35 -269.27 80.6964 -197.626 81.4317C-155.591 81.877 -112.731 93.6971 -70.5323 82.3328C-18.0126 68.2632 9.90262 15.8966 50.9431 -19.1774C74.9414 -39.6908 99.308 -52.9504 127.239 -64.1297C200.287 -93.4988 229.776 -156.416 288.616 -210.903C410.384 -323.651 564.05 -383.484 697.599 -475.259" stroke="white" stroke-width="0.5" stroke-linecap="round" stroke-linejoin="round"></path>
  <path d="M-351.508 143.727C-301.344 84.6125 -255.49 51.8982 -182.334 55.6108C-141.198 57.6898 -99.3619 71.8541 -57.6699 61.3522C17.0143 42.4602 54.4385 -58.4302 121.351 -99.5797C182.037 -136.925 227.374 -187.525 283.884 -232.57C415.208 -337.205 566.685 -405.729 692.228 -519.933" stroke="white" stroke-width="0.5" stroke-linecap="round" stroke-linejoin="round"></path>
  <path d="M-343.788 118.475C-295.132 62.9263 -248.687 25.12 -178.156 28.9665C-136.665 31.2632 -93.901 49.833 -51.6631 40.9995C28.7373 24.1781 56.8083 -81.8743 115.434 -135.31C166.067 -181.455 230.986 -219.792 285.995 -258.424C418.771 -351.778 570.223 -430.655 675.478 -563.988" stroke="white" stroke-width="0.5" stroke-linecap="round" stroke-linejoin="round"></path>
  <path d="M-345.891 94.7688C-295.453 38.2545 -246.849 -3.07655 -174.129 2.05877C-133.066 4.93331 -90.7026 24.9864 -48.7457 16.0416C36.1615 -2.07634 56.4476 -112.204 107.771 -174.247C120.776 -189.946 135.078 -197.341 152.43 -206.146C197.142 -228.86 239.57 -252.764 282.656 -279.699C412.967 -361.791 571.462 -454.22 648.325 -603.094" stroke="white" stroke-width="0.5" stroke-linecap="round" stroke-linejoin="round"></path>
  <path d="M-364.817 72.5021C-308.792 10.1984 -256.785 -33.5247 -176.653 -26.1644C-136.535 -22.4254 -95.8332 -4.73951 -54.8397 -16.41C32.1618 -41.1576 47.3675 -153.053 96.3613 -219.556C108.887 -236.539 123.439 -241.736 141.86 -248.016C187.516 -263.625 231.256 -275.755 274.991 -299.337C401.26 -367.388 570.492 -475.261 611.524 -633.507" stroke="white" stroke-width="0.5" stroke-linecap="round" stroke-linejoin="round"></path>
  <path d="M566.938 -611.296C637.178 -583.454 687.369 -503.644 654.912 -416.738C633.813 -360.102 547.024 -285.947 604.682 -230.031C625.601 -209.771 655.059 -202.709 674.526 -179.805C691.421 -159.842 698.633 -132.523 707.627 -107.259C739.914 -16.3777 807.595 20.215 885.754 58.7016" stroke="white" stroke-width="0.5" stroke-linecap="round" stroke-linejoin="round"></path>
  <path d="M557.517 -572.579C618.444 -541.015 645.787 -467.669 614.189 -394.527C588.465 -335.019 511.295 -262.837 573.669 -204.487C591.997 -187.393 615.866 -178.618 633.121 -159.915C653.692 -137.509 662.324 -109.672 673.246 -80.5053C705.013 4.24785 771.269 29.4657 846.198 61.5501" stroke="white" stroke-width="0.5" stroke-linecap="round" stroke-linejoin="round"></path>
  <path d="M538.891 -533.89C597.058 -504.649 595.659 -423.824 568.296 -367.27C538.632 -305.946 481.697 -243.507 543.102 -185.539C565.987 -163.886 595.515 -155.418 614.61 -127.675C628.085 -108.111 634.211 -83.4544 642.599 -60.8533C671.656 17.3439 742.104 33.777 810.732 59.4797" stroke="white" stroke-width="0.5" stroke-linecap="round" stroke-linejoin="round"></path>
  <path d="M512.851 -495.952C552.823 -465.51 552.691 -402.63 531.111 -356.494C510.617 -312.742 474.99 -283.342 480.258 -227.732C482.91 -200.665 495.844 -187.509 514.488 -172.157C537.583 -153.13 564.55 -146.036 583.807 -120.695C601.808 -97.0335 606.824 -66.8717 618.589 -39.2571C646.067 25.7835 722.141 35.7209 779.342 54.9597" stroke="white" stroke-width="0.5" stroke-linecap="round" stroke-linejoin="round"></path>
  <path d="M480.519 -458.75C558.108 -359.985 369.274 -230.85 487.415 -162.266C513.445 -147.15 541.793 -140.46 561.417 -114.204C578.302 -91.6263 581.866 -62.439 592.058 -36.1935C617.243 28.661 694.338 33.221 750.121 50.741" stroke="white" stroke-width="0.5" stroke-linecap="round" stroke-linejoin="round"></path>
  <path d="M443.639 -423.669C461.371 -377.983 457.57 -343.852 438.854 -298.372C413.545 -236.814 394.894 -179.563 461.261 -154.044C484.841 -144.986 511.399 -141.34 530.678 -122.473C555.759 -97.918 556.522 -61.5668 569.872 -29.8357C595.169 30.2917 669.983 32.9188 722.916 49.4236" stroke="white" stroke-width="0.5" stroke-linecap="round" stroke-linejoin="round"></path>
  <path d="M403.904 -391.558C408.249 -345.964 412.653 -317.659 398.132 -272.898C377.349 -208.713 370.313 -159.636 437.323 -146.535C461.419 -141.853 488.709 -141.953 508.67 -124.667C535.972 -101.113 535.325 -61.7078 547.803 -28.8575C571.585 33.614 642.741 35.4731 697.32 53.4861" stroke="white" stroke-width="0.5" stroke-linecap="round" stroke-linejoin="round"></path>
  <path d="M362.863 -363.2C358.7 -323.784 370.507 -289.135 360.592 -249.537C342.893 -178.804 345.355 -139.982 415.661 -138.089C446.188 -137.261 478.69 -143.674 500.552 -115.178C519.724 -90.1591 518.132 -49.8193 528.649 -20.5146C550.445 40.2953 620.943 46.5024 672.446 65.7641" stroke="white" stroke-width="0.5" stroke-linecap="round" stroke-linejoin="round"></path>
  <path d="M321.867 -339.458C312.655 -298.795 325.717 -256.088 323.886 -214.962C320.717 -144.52 328.31 -113.884 395.744 -126.813C418.233 -131.119 448.612 -141.008 469.797 -127.765C500.893 -108.291 499.932 -56.6538 507.486 -22.1892C524.327 54.4629 585.681 61.1129 647.841 88.6906" stroke="white" stroke-width="0.5" stroke-linecap="round" stroke-linejoin="round"></path>
  <path d="M282.782 -321.042C268.95 -272.857 286.815 -228.431 291.807 -181.743C294.514 -156.534 285.542 -118.671 309.225 -103.546C329.383 -90.6603 358.546 -104.266 378.709 -111.565C399.401 -119.143 431.243 -135.562 452.939 -124.414C486.14 -107.379 483.095 -45.8183 488.794 -11.57C503.295 75.4226 553.274 86.9108 622.81 124.807" stroke="white" stroke-width="0.5" stroke-linecap="round" stroke-linejoin="round"></path>
  <path d="M246.646 -308.766C233.388 -248.73 247.947 -212.312 260.886 -156.942C267.89 -127.058 263.906 -79.5028 295.268 -67.492C315.597 -59.6864 347.025 -81.4392 364.166 -90.4874C386.887 -102.476 417.491 -124.999 441.64 -111.129C472.605 -93.357 467.131 -25.2322 470.81 8.8036C473.472 33.8844 474.691 63.2196 485.624 85.7198C506.198 127.998 562.399 153.883 596.706 177.142" stroke="white" stroke-width="0.5" stroke-linecap="round" stroke-linejoin="round"></path>
  <path d="M215.076 -302.703C196.924 -222.856 217.522 -177.595 239.436 -105.678C245.711 -85.1079 247.649 -42.275 267.867 -31.0907C295.046 -15.9796 329.641 -46.2197 352.16 -61.6938C371.375 -74.8947 407.637 -108.654 431.311 -93.0357C451.962 -79.436 449.792 -0.44009 451.201 18.0385C453.979 57.4346 451.351 103.747 466.16 140.036C485.382 187.014 533.045 218.272 567.921 248.147" stroke="white" stroke-width="0.5" stroke-linecap="round" stroke-linejoin="round"></path>
  <path d="M171.834 -298.711C168.737 -211.675 194.358 -151.831 221.933 -74.7174C228.917 -55.2351 233.186 -9.8354 253.261 0.3081C279.301 13.4486 312.717 -16.2609 333.977 -30.9067C352.399 -43.6294 388.07 -76.5421 410.992 -62.1248C431.562 -49.2193 431.01 25.2902 432.476 43.4153C435.705 83.2945 432.575 130.251 446.637 167.427C465.498 217.282 513.377 247.717 550.605 277.803" stroke="white" stroke-width="0.5" stroke-linecap="round" stroke-linejoin="round"></path>
  <path d="M139.631 -295.523C147.563 -205.812 174.81 -134.13 205.025 -53.0303C212.221 -33.697 217.99 12.4542 238.031 22.4966C263.199 35.1067 295.419 8.02256 316.736 -5.30863C335.802 -17.3056 370.66 -46.8456 393.245 -32.3632C414.38 -18.8905 413.894 48.0012 415.315 67.8101C417.887 106.803 412.132 153.258 423.824 190.328C440.075 241.773 486.632 270.057 524.494 299.063" stroke="white" stroke-width="0.5" stroke-linecap="round" stroke-linejoin="round"></path>
  <path d="M116.493 -292.204C131.958 -202.698 157.936 -122.139 188.276 -38.694C195.52 -18.7239 201.719 26.4036 221.837 37.2865C246.649 50.5729 277.039 27.007 299.623 16.0419C320.711 5.79842 353.984 -19.3886 376.828 -3.79298C398.678 11.1094 397.771 68.6443 398.425 91.3589C399.483 128.789 389.451 173.414 397.664 209.721C409.463 261.845 453.649 286.868 491.003 313.908" stroke="white" stroke-width="0.5" stroke-linecap="round" stroke-linejoin="round"></path>
  <path d="M100.289 -287.857C120.676 -200.302 142.851 -114.202 171.234 -29.8333C197.277 47.6255 206.984 60.6186 282.201 33.7703C305.33 25.5204 338.066 6.39429 360.772 23.4415C383.081 40.1895 382.172 87.801 381.408 113.725C380.367 149.659 365.125 190.841 369.134 226.156C375.114 278.146 416.269 299.146 452.547 323.817" stroke="white" stroke-width="0.5" stroke-linecap="round" stroke-linejoin="round"></path>
  <path d="M89.4456 -281.669C112.362 -199.013 128.372 -113.774 151.998 -31.5627C160.096 -3.4566 165.666 40.1993 191.781 54.5063C213.027 66.1582 241.771 53.8873 263.754 48.6971C342.938 29.9743 378.142 63.7679 359.61 158.821C354.599 184.478 339.627 211.67 338.732 237.432C336.879 290.811 373.378 306.945 410.579 330.524" stroke="white" stroke-width="0.5" stroke-linecap="round" stroke-linejoin="round"></path>
  <path d="M81.3857 -272.429C106.573 -192.049 115.182 -109.936 133.959 -27.6991C151.729 49.7838 171.456 68.1189 243.23 61.8561C315.47 55.5484 365.734 84.601 337.434 176.438C329.779 201.232 310.931 225.253 306.556 250.378C297.502 302.303 329.96 314.26 367.037 335.711" stroke="white" stroke-width="0.5" stroke-linecap="round" stroke-linejoin="round"></path>
  <path d="M74.4993 -259.351C101.091 -181.937 102.194 -111.295 113.465 -30.7413C125.153 52.6285 150.839 67.9911 220.152 73.8626C280.31 78.9442 348.385 98.5137 315.405 186.064C305.378 212.707 284.225 233.503 274.452 259.656C255.353 310.967 284.886 320.806 323.71 341.136" stroke="white" stroke-width="0.5" stroke-linecap="round" stroke-linejoin="round"></path>
  <path d="M66.8301 -241.589C85.1075 -193.377 97.1298 -152.612 96.4832 -99.2125C96.1263 -74.2508 92.0094 -49.1249 93.3259 -24.088C97.5871 56.6264 131.255 72.1062 194.046 85.4445C246.873 96.7167 325.773 120.628 288.017 201.39C275.684 227.749 252.717 246.168 240.29 271.789C216.292 321.284 242.182 329.558 282.715 348.281" stroke="white" stroke-width="0.5" stroke-linecap="round" stroke-linejoin="round"></path>
  <path d="M56.373 -218.18C75.9375 -171.658 88.8542 -135.352 82.7948 -82.5545C80.1497 -59.4058 72.041 -36.8331 71.287 -13.4174C68.8561 62.9805 108.189 79.4063 164.021 97.519C211.961 113.066 293.215 140.608 256.532 215.19C243.46 241.735 220.302 259.594 205.337 284.416C176.073 333.039 205.948 342.747 245.704 358.934" stroke="white" stroke-width="0.5" stroke-linecap="round" stroke-linejoin="round"></path>
  <path d="M40.7425 -188.14C61.7601 -143.936 76.6853 -111.094 65.4145 -59.6368C60.7478 -38.3224 49.1566 -18.5606 46.4818 3.28704C37.7026 73.4257 80.9474 91.0971 129.283 111.035C172.857 129.021 252.201 158.692 220.273 227.617C207.848 254.497 184.213 273.122 169.858 298.414C140.474 350.217 172.717 359.805 214.489 375.024" stroke="white" stroke-width="0.5" stroke-linecap="round" stroke-linejoin="round"></path>
  <path d="M17.9029 -150.441C39.6113 -111.084 58.6633 -79.8932 44.227 -31.6332C37.3939 -8.84445 22.1639 9.13895 17.8233 33.136C7.34204 91.1647 49.556 109.167 89.0875 126.96C133.881 147.161 203.473 177.188 175.745 244.658C164.876 271.166 143.177 291.732 132.228 318.125C108.63 375.03 149.173 384.411 190.851 398.382" stroke="white" stroke-width="0.5" stroke-linecap="round" stroke-linejoin="round"></path>
  <path d="M-14.2432 -104.133C8.00801 -70.0616 32.8487 -39.1013 17.177 6.34583C9.14278 29.6477 -11.3947 45.7685 -15.8386 71.0754C-24.0193 118.441 10.844 130.87 42.3218 145.922C78.8296 163.476 130.519 185.071 131.939 236.96C132.916 272.799 102.808 307.111 95.8317 341.459C82.8126 405.555 131.89 416.173 176.385 430.715" stroke="white" stroke-width="0.5" stroke-linecap="round" stroke-linejoin="round"></path>
  <path d="M-41.8626 -73.4941C-18.8992 -42.2064 6.98403 -13.9348 -8.1497 30.1114C-15.9978 52.9162 -36.5227 68.1431 -40.9252 93.0194C-49.2407 139.494 -17.5447 144.507 13.408 155.816C54.996 170.953 91.4382 198.424 93.9719 251.974C95.8956 292.294 74.9872 330.506 71.9513 370.311C66.6944 437.636 114.061 454.094 161.86 473.829" stroke="white" stroke-width="0.5" stroke-linecap="round" stroke-linejoin="round"></path>
  <path d="M-68.999 -55.9953C-45.1638 -26.3942 -18.9885 -0.600449 -34.0956 42.939C-42.0369 65.8325 -63.1005 80.8712 -67.6435 105.895C-76.4143 154.397 -42.3617 154.202 -10.8206 163.753C36.7537 178.066 61.4512 213.893 64.9445 269.578C67.6221 312.351 50.9632 354.032 50.6644 396.638C50.1782 464.532 93.6348 484.841 142.763 508.77" stroke="white" stroke-width="0.5" stroke-linecap="round" stroke-linejoin="round"></path>
  <path d="M-96.1252 -48.7111C-69.9756 -18.3532 -45.1147 4.56003 -61.8916 49.5629C-69.7497 70.7548 -88.2671 84.9634 -94.0391 107.79C-107.67 161.768 -65.883 161.154 -31.5687 170.21C30.0626 186.552 45.778 246.046 42.3442 313.846C40.6289 347.937 31.1552 381.891 31.1361 415.99C30.9054 484.916 69.8169 508.364 119.666 536.365" stroke="white" stroke-width="0.5" stroke-linecap="round" stroke-linejoin="round"></path>
  <path d="M-123.558 -48.5934C-96.0808 -18.6267 -72.2234 2.60711 -89.3359 47.9863C-97.6834 70.0909 -116.901 84.9862 -123.083 108.676C-138.56 167.72 -85.8877 165.834 -49.6789 175.794C19.1493 194.693 29.8552 261.654 24.4952 335.589C22.0067 369.781 13.0684 403.784 12.772 437.949C12.2582 503.698 46.5799 528.489 93.3504 558.15" stroke="white" stroke-width="0.5" stroke-linecap="round" stroke-linejoin="round"></path>
  <path d="M-151.724 -52.7432C-122.74 -22.8426 -100.156 -3.14954 -117.589 42.9534C-126.355 66.1179 -146.348 81.9678 -152.987 106.742C-170.285 171.331 -104.658 169.621 -66.2959 181.09C10.3269 203.815 18.5131 275.878 9.1696 357.869C5.34638 391.358 -4.00423 424.602 -5.19713 458.283C-7.38252 519.605 21.8616 544.775 64.3208 575.186" stroke="white" stroke-width="0.5" stroke-linecap="round" stroke-linejoin="round"></path>
  <path d="M-181.279 -57.9194C-150.726 -28.1962 -129.333 -9.80245 -146.928 37.1679C-156.057 61.4384 -176.725 78.3754 -183.718 104.276C-202.717 174.518 -123.326 173.634 -82.3938 186.664C2.09273 213.388 9.74393 289.701 -5.39652 380.158C-20.8481 472.653 -41.0053 527.916 33.2194 588.589" stroke="white" stroke-width="0.5" stroke-linecap="round" stroke-linejoin="round"></path>
  <path d="M-212.159 -61.2397C-180.019 -31.9464 -159.502 -14.7601 -177 33.0457C-186.277 58.3666 -207.545 76.4576 -214.652 103.274C-234.832 178.8 -142.236 178.743 -98.9141 193.121C-7.16728 223.454 1.24358 304.028 -20.8481 402.117C-39.5416 485.342 -62.7565 539.049 0.715566 599.381" stroke="white" stroke-width="0.5" stroke-linecap="round" stroke-linejoin="round"></path>
  <path d="M-244.999 -59.9266C-211.378 -31.7657 -191.039 -15.6713 -208.027 32.8743C-217.198 59.0295 -238.644 78.035 -245.755 105.725C-266.311 185.808 -162.378 185.703 -116.929 200.878C-18.4425 233.738 -9.93087 319.178 -38.8942 423.258C-59.556 497.526 -85.1158 549.18 -32.4785 608.831" stroke="white" stroke-width="0.5" stroke-linecap="round" stroke-linejoin="round"></path>
  <path d="M-280.185 -50.9988C-245.204 -24.7131 -224.084 -9.95328 -240.072 39.1347C-248.727 65.8106 -270.167 85.5313 -276.833 113.703C-296.63 197.296 -184.433 195.203 -137.423 210.406C-32.7314 244.126 -27.2637 335.34 -61.2694 443.169C-82.4036 510.189 -108.118 559.242 -65.7144 618.022" stroke="white" stroke-width="0.5" stroke-linecap="round" stroke-linejoin="round"></path>
  <path d="M-318.092 -31.4247C-282.051 -7.97172 -258.874 5.0137 -273.1 54.4942C-280.789 81.2996 -301.846 101.468 -307.569 129.508C-325.192 215.148 -209.313 208.493 -161.266 222.443C-50.6673 254.807 -54.2649 352.82 -89.4838 461.613C-109.692 524.029 -131.913 570.44 -98.2259 628.27" stroke="white" stroke-width="0.5" stroke-linecap="round" stroke-linejoin="round"></path>
  <path d="M-359.175 1.78253C-322.725 21.3036 -295.744 31.9066 -307.284 81.3608C-313.374 107.483 -333.477 127.741 -337.84 155.136C-351.511 240.82 -237.719 226.233 -189.815 237.639C15.4302 286.539 -206.027 515.202 -129.825 640.69" stroke="white" stroke-width="0.5" stroke-linecap="round" stroke-linejoin="round"></path>
</svg>
